<svg xmlns="http://www.w3.org/2000/svg" xmlns:xlink="http://www.w3.org/1999/xlink" width="1587" zoomAndPan="magnify" viewBox="0 0 1190.25 1683.749945" height="2245" preserveAspectRatio="xMidYMid meet" version="1.0"><defs><g/><clipPath id="61c1512dca"><path d="M 0 0.40625 L 1189.5 0.40625 L 1189.5 1683.09375 L 0 1683.09375 Z M 0 0.40625 " clip-rule="nonzero"/></clipPath></defs><g clip-path="url(#61c1512dca)"><path fill="#ffffff" d="M 0 0.40625 L 1192.25 0.40625 L 1192.25 1694.296875 L 0 1694.296875 Z M 0 0.40625 " fill-opacity="1" fill-rule="nonzero"/><path fill="#ffffff" d="M 0 0.40625 L 1190 0.40625 L 1190 1683.800781 L 0 1683.800781 Z M 0 0.40625 " fill-opacity="1" fill-rule="nonzero"/><path fill="#0f172a" d="M 0 0.40625 L 1190 0.40625 L 1190 1683.800781 L 0 1683.800781 Z M 0 0.40625 " fill-opacity="1" fill-rule="nonzero"/></g><g fill="#ffffff" fill-opacity="1"><g transform="translate(277.383504, 959.842667)"><g><path d="M 86.265625 0.65625 C 74.628906 0.65625 68.8125 -2.523438 68.8125 -8.890625 L 68.8125 -193.625 L 12.84375 -193.625 C 9.769531 -193.625 7.519531 -194.71875 6.09375 -196.90625 C 4.664062 -199.101562 3.953125 -202.726562 3.953125 -207.78125 L 3.953125 -216.34375 C 3.953125 -221.382812 4.664062 -225.003906 6.09375 -227.203125 C 7.519531 -229.398438 9.769531 -230.5 12.84375 -230.5 L 167.9375 -230.5 C 171.007812 -230.5 173.257812 -229.398438 174.6875 -227.203125 C 176.113281 -225.003906 176.828125 -221.382812 176.828125 -216.34375 L 176.828125 -207.78125 C 176.828125 -202.726562 176.113281 -199.101562 174.6875 -196.90625 C 173.257812 -194.71875 171.007812 -193.625 167.9375 -193.625 L 112.28125 -193.625 L 112.28125 -8.890625 C 112.28125 -2.523438 106.460938 0.65625 94.828125 0.65625 Z M 86.265625 0.65625 "/></g></g></g><g fill="#ffffff" fill-opacity="1"><g transform="translate(464.4175, 959.842667)"><g><path d="M 133.6875 -58.28125 C 128.632812 -58.28125 124.90625 -60.144531 122.5 -63.875 L 75.734375 -146.53125 C 73.097656 -150.257812 70.570312 -154.757812 68.15625 -160.03125 L 66.84375 -159.703125 C 67.0625 -155.972656 67.171875 -150.375 67.171875 -142.90625 L 67.171875 -8.890625 C 67.171875 -2.523438 61.351562 0.65625 49.71875 0.65625 L 42.484375 0.65625 C 30.847656 0.65625 25.03125 -2.523438 25.03125 -8.890625 L 25.03125 -221.609375 C 25.03125 -227.972656 30.847656 -231.15625 42.484375 -231.15625 L 57.953125 -231.15625 C 67.390625 -231.15625 73.535156 -228.519531 76.390625 -223.25 L 133.6875 -122.15625 C 135.882812 -118.425781 137.640625 -114.804688 138.953125 -111.296875 C 139.835938 -114.148438 141.59375 -117.882812 144.21875 -122.5 L 201.84375 -223.25 C 204.695312 -228.519531 210.734375 -231.15625 219.953125 -231.15625 L 235.109375 -231.15625 C 246.742188 -231.15625 252.5625 -227.972656 252.5625 -221.609375 L 252.5625 -8.890625 C 252.5625 -2.523438 246.742188 0.65625 235.109375 0.65625 L 227.859375 0.65625 C 216.222656 0.65625 210.40625 -2.523438 210.40625 -8.890625 L 210.40625 -142.25 C 210.40625 -149.707031 210.515625 -155.304688 210.734375 -159.046875 L 209.421875 -159.375 C 207.003906 -154.101562 204.476562 -149.601562 201.84375 -145.875 L 155.421875 -63.875 C 153.003906 -60.144531 149.269531 -58.28125 144.21875 -58.28125 Z M 133.6875 -58.28125 "/></g></g></g><g fill="#ffffff" fill-opacity="1"><g transform="translate(748.261244, 959.842667)"><g><path d="M 83.3125 2.3125 C 68.601562 2.3125 55.484375 0.773438 43.953125 -2.296875 C 32.429688 -5.378906 23.488281 -9.222656 17.125 -13.828125 C 11.632812 -18.003906 8.890625 -21.738281 8.890625 -25.03125 C 8.890625 -29.195312 11.082031 -34.40625 15.46875 -40.65625 C 19.863281 -46.914062 23.488281 -50.046875 26.34375 -50.046875 C 27.65625 -50.046875 30.398438 -48.835938 34.578125 -46.421875 C 41.378906 -42.910156 48.070312 -40.054688 54.65625 -37.859375 C 61.25 -35.671875 68.929688 -34.578125 77.703125 -34.578125 C 87.585938 -34.578125 95.875 -36.9375 102.5625 -41.65625 C 109.257812 -46.375 112.609375 -53.453125 112.609375 -62.890625 C 112.609375 -68.816406 110.90625 -73.8125 107.5 -77.875 C 104.101562 -81.9375 99.878906 -85.335938 94.828125 -88.078125 C 89.785156 -90.828125 82.765625 -94.066406 73.765625 -97.796875 L 62.234375 -102.734375 C 52.140625 -107.128906 43.6875 -111.796875 36.875 -116.734375 C 30.070312 -121.671875 24.472656 -128.3125 20.078125 -136.65625 C 15.691406 -145 13.5 -155.535156 13.5 -168.265625 C 13.5 -182.085938 16.957031 -193.882812 23.875 -203.65625 C 30.789062 -213.425781 40.066406 -220.722656 51.703125 -225.546875 C 63.335938 -230.378906 76.066406 -232.796875 89.890625 -232.796875 C 99.773438 -232.796875 109.328125 -231.695312 118.546875 -229.5 C 127.765625 -227.3125 134.894531 -224.351562 139.9375 -220.625 C 144.550781 -217.320312 146.859375 -214.023438 146.859375 -210.734375 C 146.859375 -206.785156 144.988281 -201.679688 141.25 -195.421875 C 137.519531 -189.171875 134.234375 -186.046875 131.390625 -186.046875 C 130.285156 -186.046875 128.523438 -186.59375 126.109375 -187.6875 C 123.703125 -188.789062 121.835938 -189.671875 120.515625 -190.328125 C 111.734375 -194.054688 102.40625 -195.921875 92.53125 -195.921875 C 80.675781 -195.921875 71.945312 -193.5625 66.34375 -188.84375 C 60.75 -184.125 57.953125 -178.140625 57.953125 -170.890625 C 57.953125 -164.523438 59.597656 -159.3125 62.890625 -155.25 C 66.179688 -151.195312 70.242188 -147.960938 75.078125 -145.546875 C 79.910156 -143.128906 87.046875 -140.054688 96.484375 -136.328125 C 108.992188 -131.273438 119.304688 -126.332031 127.421875 -121.5 C 135.546875 -116.675781 142.515625 -109.816406 148.328125 -100.921875 C 154.148438 -92.035156 157.0625 -80.675781 157.0625 -66.84375 C 157.0625 -43.789062 150.035156 -26.5 135.984375 -14.96875 C 121.941406 -3.445312 104.382812 2.3125 83.3125 2.3125 Z M 83.3125 2.3125 "/></g></g></g></svg>