<svg xmlns="http://www.w3.org/2000/svg" xmlns:xlink="http://www.w3.org/1999/xlink" width="1000" zoomAndPan="magnify" viewBox="0 0 750 749.999995" height="1000" preserveAspectRatio="xMidYMid meet" version="1.0"><defs><g/></defs><g fill="#ffc1b2" fill-opacity="0.302"><g transform="translate(-28.576148, 534.165054)"><g><path d="M 195.765625 -254.769531 L 195.515625 -254.519531 C 191.015625 -250.519531 186.015625 -248.519531 180.261719 -248.519531 L 51.753906 -248.519531 C 45.753906 -248.519531 40.753906 -250.519531 36.253906 -254.519531 L 36.253906 -254.769531 C 34.753906 -255.519531 33.503906 -255.519531 32.003906 -254.769531 C 30.503906 -254.019531 30.003906 -253.019531 30.003906 -251.519531 L 30.003906 -196.015625 C 30.003906 -194.265625 30.503906 -193.015625 32.003906 -192.515625 C 33.503906 -191.765625 34.753906 -191.765625 36.253906 -192.765625 C 40.753906 -196.765625 45.753906 -199.015625 51.753906 -199.015625 L 86.257812 -199.015625 C 87.507812 -199.015625 88.757812 -198.515625 89.757812 -197.515625 C 90.757812 -196.515625 91.257812 -195.265625 91.257812 -194.015625 L 91.257812 -22 C 91.257812 -16 89.257812 -10.75 85.257812 -6.5 L 85.007812 -6.25 C 84.007812 -4.75 84.007812 -3.5 84.757812 -2 C 85.257812 -0.5 86.507812 0 88.257812 0 L 143.761719 0 C 145.261719 0 146.261719 -0.5 147.011719 -2 C 147.761719 -3.5 147.761719 -4.75 147.011719 -6.25 C 142.761719 -10.75 140.761719 -15.75 140.761719 -21.75 L 140.761719 -194.015625 C 140.761719 -195.265625 141.261719 -196.515625 142.261719 -197.515625 C 143.261719 -198.515625 144.261719 -199.015625 145.761719 -199.015625 L 180.261719 -199.015625 C 186.265625 -199.015625 191.265625 -196.765625 195.515625 -192.765625 L 195.765625 -192.765625 C 197.015625 -191.765625 198.265625 -191.765625 199.765625 -192.515625 C 201.265625 -193.015625 202.015625 -194.265625 202.015625 -196.015625 L 202.015625 -251.519531 C 202.015625 -253.019531 201.265625 -254.019531 199.765625 -254.769531 C 198.265625 -255.519531 197.015625 -255.519531 195.765625 -254.769531 Z M 195.765625 -254.769531 "/></g></g></g><g fill="#ffc1b2" fill-opacity="0.302"><g transform="translate(203.438908, 534.165054)"><g><path d="M 270.769531 -21 L 270.769531 -227.515625 C 270.769531 -233.015625 272.519531 -238.019531 276.519531 -242.269531 C 277.519531 -243.519531 277.769531 -244.769531 277.269531 -246.269531 C 276.519531 -247.769531 275.519531 -248.519531 274.019531 -248.519531 L 221.265625 -248.519531 L 221.015625 -248.269531 L 221.015625 -248.519531 L 214.265625 -248.519531 C 212.515625 -248.519531 211.265625 -247.769531 210.765625 -246.269531 C 210.015625 -244.769531 210.015625 -243.519531 211.015625 -242.269531 C 212.015625 -240.769531 211.765625 -239.769531 210.765625 -239.019531 L 159.261719 -191.515625 C 157.511719 -190.015625 155.511719 -189.515625 153.511719 -189.515625 C 151.511719 -189.515625 149.761719 -190.015625 148.261719 -191.515625 L 96.007812 -239.519531 C 95.007812 -240.269531 95.007812 -241.019531 96.007812 -242.019531 C 97.007812 -243.269531 97.257812 -244.769531 96.757812 -246.269531 C 96.007812 -247.769531 94.757812 -248.519531 93.007812 -248.519531 L 34.003906 -248.519531 C 32.253906 -248.519531 31.003906 -247.769531 30.503906 -246.269531 C 29.753906 -244.769531 29.753906 -243.519531 30.753906 -242.269531 L 31.003906 -242.019531 C 34.753906 -237.769531 36.753906 -232.765625 36.753906 -227.265625 L 36.753906 -21.25 C 36.753906 -15.5 34.753906 -10.5 31.003906 -6.5 L 30.753906 -6.25 C 29.753906 -4.75 29.753906 -3.5 30.503906 -2 C 31.003906 -0.5 32.253906 0 34.003906 0 L 89.257812 0 C 90.757812 0 92.007812 -0.5 92.757812 -2 C 93.257812 -3.5 93.257812 -4.75 92.507812 -6.25 L 92.007812 -6.75 C 88.007812 -10.75 86.257812 -15.75 86.257812 -21.5 L 86.257812 -173.011719 C 86.257812 -174.511719 86.757812 -175.511719 88.257812 -176.011719 C 89.757812 -176.511719 91.007812 -176.511719 92.257812 -175.511719 L 148.261719 -123.507812 C 149.761719 -122.007812 151.511719 -121.257812 153.761719 -121.257812 C 155.761719 -121.257812 157.761719 -122.007812 159.261719 -123.507812 L 215.265625 -175.511719 C 216.265625 -176.511719 217.515625 -176.511719 219.015625 -176.011719 C 220.515625 -175.511719 221.265625 -174.511719 221.265625 -173.011719 L 221.265625 -21.75 C 221.265625 -16.25 219.265625 -11.25 215.265625 -7 L 214.765625 -6.25 C 213.765625 -4.75 213.765625 -3.5 214.515625 -2 C 215.015625 -0.5 216.265625 0 218.015625 0 L 274.019531 0 C 275.519531 0 276.519531 -0.5 277.269531 -2 C 277.769531 -3.5 277.519531 -4.75 276.519531 -6.25 C 272.519531 -10.25 270.769531 -15.25 270.769531 -21 Z M 270.769531 -21 "/></g></g></g><g fill="#ffc1b2" fill-opacity="0.302"><g transform="translate(510.958868, 534.165054)"><g><path d="M 205.515625 -187.015625 L 204.265625 -188.515625 C 200.765625 -192.015625 198.515625 -196.015625 197.015625 -200.515625 C 192.515625 -214.515625 183.261719 -226.015625 169.761719 -235.015625 C 162.261719 -239.769531 153.761719 -243.519531 144.261719 -246.019531 C 134.761719 -248.519531 125.007812 -249.769531 114.507812 -249.769531 C 104.007812 -249.769531 93.757812 -248.269531 84.007812 -245.769531 C 74.253906 -243.269531 65.503906 -239.519531 57.753906 -234.765625 C 47.253906 -228.265625 39.503906 -220.515625 34.003906 -211.265625 C 28.503906 -202.015625 26 -192.015625 26 -181.011719 C 26 -160.011719 35.753906 -142.011719 55.753906 -127.257812 C 62.753906 -121.757812 70.253906 -117.257812 78.503906 -113.257812 C 86.757812 -109.257812 95.257812 -105.257812 103.757812 -101.757812 C 108.757812 -99.257812 114.257812 -96.757812 119.757812 -94.257812 C 125.257812 -91.757812 130.257812 -89.007812 134.761719 -86.507812 C 139.261719 -83.757812 143.011719 -81.007812 146.011719 -78.253906 C 149.011719 -75.253906 150.511719 -72.503906 150.511719 -69.753906 C 150.511719 -66.253906 149.261719 -63.003906 146.761719 -60.503906 C 144.261719 -58.003906 141.011719 -55.753906 137.261719 -54.253906 C 133.511719 -52.753906 129.507812 -51.503906 125.007812 -50.753906 C 120.507812 -49.753906 116.507812 -49.503906 112.507812 -49.503906 C 107.507812 -49.503906 102.507812 -50.003906 97.007812 -51.253906 C 91.507812 -52.253906 86.757812 -54.253906 83.007812 -57.003906 C 82.007812 -57.753906 81.257812 -58.753906 81.257812 -60.003906 C 81.007812 -61.253906 81.257812 -62.253906 82.257812 -63.253906 L 82.507812 -63.503906 C 83.257812 -64.753906 83.257812 -66.003906 82.757812 -67.503906 C 82.007812 -69.003906 80.757812 -69.753906 79.257812 -69.753906 L 24 -69.753906 C 22.25 -69.753906 21 -69.003906 20.5 -67.503906 C 19.75 -66.003906 19.75 -64.753906 20.75 -63.503906 L 21.75 -62.503906 C 25.25 -58.503906 27.503906 -54.253906 29.003906 -50.003906 C 33.503906 -35.503906 42.503906 -24 56.503906 -15.25 C 64.003906 -10.25 72.753906 -6.5 82.257812 -4 C 91.757812 -1.25 102.007812 0 112.507812 0 C 125.007812 0 136.761719 -1.75 147.511719 -5.25 C 158.261719 -8.75 167.511719 -13.5 175.261719 -19.75 C 183.011719 -25.75 189.015625 -33.253906 193.515625 -41.753906 C 197.765625 -50.253906 200.015625 -59.503906 200.015625 -69.753906 C 200.015625 -80.507812 197.515625 -90.007812 192.765625 -98.007812 C 188.015625 -106.007812 182.011719 -113.007812 174.511719 -119.007812 C 167.011719 -125.007812 159.011719 -130.007812 150.011719 -134.511719 C 141.011719 -139.011719 132.261719 -143.011719 123.757812 -147.011719 C 118.007812 -149.511719 112.257812 -152.011719 106.507812 -154.761719 C 100.757812 -157.261719 95.507812 -160.011719 91.007812 -163.011719 C 86.507812 -165.761719 82.757812 -168.761719 79.757812 -171.761719 C 76.753906 -174.761719 75.503906 -177.761719 75.503906 -181.011719 C 75.503906 -183.765625 76.503906 -186.265625 79.007812 -188.765625 C 81.257812 -191.265625 84.257812 -193.265625 88.007812 -195.015625 C 91.507812 -196.515625 95.757812 -197.765625 100.507812 -198.765625 C 105.007812 -199.765625 109.757812 -200.265625 114.507812 -200.265625 C 120.007812 -200.265625 125.507812 -199.515625 130.507812 -198.515625 C 135.511719 -197.265625 139.511719 -195.515625 143.011719 -193.265625 C 144.011719 -192.515625 144.761719 -191.515625 144.761719 -190.265625 C 144.761719 -189.015625 144.511719 -188.015625 143.761719 -187.265625 L 143.761719 -187.015625 C 142.761719 -185.515625 142.761719 -184.265625 143.511719 -183.011719 C 144.011719 -181.511719 145.261719 -181.011719 147.011719 -181.011719 L 202.265625 -181.011719 C 203.765625 -181.011719 205.015625 -181.511719 205.765625 -183.011719 C 206.265625 -184.265625 206.265625 -185.515625 205.515625 -187.015625 Z M 205.515625 -187.015625 "/></g></g></g><g fill="#ffc1b2" fill-opacity="0.502"><g transform="translate(-21.959127, 536.973833)"><g><path d="M 195.765625 -254.769531 L 195.515625 -254.519531 C 191.015625 -250.519531 186.015625 -248.519531 180.261719 -248.519531 L 51.753906 -248.519531 C 45.753906 -248.519531 40.753906 -250.519531 36.253906 -254.519531 L 36.253906 -254.769531 C 34.753906 -255.519531 33.503906 -255.519531 32.003906 -254.769531 C 30.503906 -254.019531 30.003906 -253.019531 30.003906 -251.519531 L 30.003906 -196.015625 C 30.003906 -194.265625 30.503906 -193.015625 32.003906 -192.515625 C 33.503906 -191.765625 34.753906 -191.765625 36.253906 -192.765625 C 40.753906 -196.765625 45.753906 -199.015625 51.753906 -199.015625 L 86.257812 -199.015625 C 87.507812 -199.015625 88.757812 -198.515625 89.757812 -197.515625 C 90.757812 -196.515625 91.257812 -195.265625 91.257812 -194.015625 L 91.257812 -22 C 91.257812 -16 89.257812 -10.75 85.257812 -6.5 L 85.007812 -6.25 C 84.007812 -4.75 84.007812 -3.5 84.757812 -2 C 85.257812 -0.5 86.507812 0 88.257812 0 L 143.761719 0 C 145.261719 0 146.261719 -0.5 147.011719 -2 C 147.761719 -3.5 147.761719 -4.75 147.011719 -6.25 C 142.761719 -10.75 140.761719 -15.75 140.761719 -21.75 L 140.761719 -194.015625 C 140.761719 -195.265625 141.261719 -196.515625 142.261719 -197.515625 C 143.261719 -198.515625 144.261719 -199.015625 145.761719 -199.015625 L 180.261719 -199.015625 C 186.265625 -199.015625 191.265625 -196.765625 195.515625 -192.765625 L 195.765625 -192.765625 C 197.015625 -191.765625 198.265625 -191.765625 199.765625 -192.515625 C 201.265625 -193.015625 202.015625 -194.265625 202.015625 -196.015625 L 202.015625 -251.519531 C 202.015625 -253.019531 201.265625 -254.019531 199.765625 -254.769531 C 198.265625 -255.519531 197.015625 -255.519531 195.765625 -254.769531 Z M 195.765625 -254.769531 "/></g></g></g><g fill="#ffc1b2" fill-opacity="0.502"><g transform="translate(210.055929, 536.973833)"><g><path d="M 270.769531 -21 L 270.769531 -227.515625 C 270.769531 -233.015625 272.519531 -238.019531 276.519531 -242.269531 C 277.519531 -243.519531 277.769531 -244.769531 277.269531 -246.269531 C 276.519531 -247.769531 275.519531 -248.519531 274.019531 -248.519531 L 221.265625 -248.519531 L 221.015625 -248.269531 L 221.015625 -248.519531 L 214.265625 -248.519531 C 212.515625 -248.519531 211.265625 -247.769531 210.765625 -246.269531 C 210.015625 -244.769531 210.015625 -243.519531 211.015625 -242.269531 C 212.015625 -240.769531 211.765625 -239.769531 210.765625 -239.019531 L 159.261719 -191.515625 C 157.511719 -190.015625 155.511719 -189.515625 153.511719 -189.515625 C 151.511719 -189.515625 149.761719 -190.015625 148.261719 -191.515625 L 96.007812 -239.519531 C 95.007812 -240.269531 95.007812 -241.019531 96.007812 -242.019531 C 97.007812 -243.269531 97.257812 -244.769531 96.757812 -246.269531 C 96.007812 -247.769531 94.757812 -248.519531 93.007812 -248.519531 L 34.003906 -248.519531 C 32.253906 -248.519531 31.003906 -247.769531 30.503906 -246.269531 C 29.753906 -244.769531 29.753906 -243.519531 30.753906 -242.269531 L 31.003906 -242.019531 C 34.753906 -237.769531 36.753906 -232.765625 36.753906 -227.265625 L 36.753906 -21.25 C 36.753906 -15.5 34.753906 -10.5 31.003906 -6.5 L 30.753906 -6.25 C 29.753906 -4.75 29.753906 -3.5 30.503906 -2 C 31.003906 -0.5 32.253906 0 34.003906 0 L 89.257812 0 C 90.757812 0 92.007812 -0.5 92.757812 -2 C 93.257812 -3.5 93.257812 -4.75 92.507812 -6.25 L 92.007812 -6.75 C 88.007812 -10.75 86.257812 -15.75 86.257812 -21.5 L 86.257812 -173.011719 C 86.257812 -174.511719 86.757812 -175.511719 88.257812 -176.011719 C 89.757812 -176.511719 91.007812 -176.511719 92.257812 -175.511719 L 148.261719 -123.507812 C 149.761719 -122.007812 151.511719 -121.257812 153.761719 -121.257812 C 155.761719 -121.257812 157.761719 -122.007812 159.261719 -123.507812 L 215.265625 -175.511719 C 216.265625 -176.511719 217.515625 -176.511719 219.015625 -176.011719 C 220.515625 -175.511719 221.265625 -174.511719 221.265625 -173.011719 L 221.265625 -21.75 C 221.265625 -16.25 219.265625 -11.25 215.265625 -7 L 214.765625 -6.25 C 213.765625 -4.75 213.765625 -3.5 214.515625 -2 C 215.015625 -0.5 216.265625 0 218.015625 0 L 274.019531 0 C 275.519531 0 276.519531 -0.5 277.269531 -2 C 277.769531 -3.5 277.519531 -4.75 276.519531 -6.25 C 272.519531 -10.25 270.769531 -15.25 270.769531 -21 Z M 270.769531 -21 "/></g></g></g><g fill="#ffc1b2" fill-opacity="0.502"><g transform="translate(517.575889, 536.973833)"><g><path d="M 205.515625 -187.015625 L 204.265625 -188.515625 C 200.765625 -192.015625 198.515625 -196.015625 197.015625 -200.515625 C 192.515625 -214.515625 183.261719 -226.015625 169.761719 -235.015625 C 162.261719 -239.769531 153.761719 -243.519531 144.261719 -246.019531 C 134.761719 -248.519531 125.007812 -249.769531 114.507812 -249.769531 C 104.007812 -249.769531 93.757812 -248.269531 84.007812 -245.769531 C 74.253906 -243.269531 65.503906 -239.519531 57.753906 -234.765625 C 47.253906 -228.265625 39.503906 -220.515625 34.003906 -211.265625 C 28.503906 -202.015625 26 -192.015625 26 -181.011719 C 26 -160.011719 35.753906 -142.011719 55.753906 -127.257812 C 62.753906 -121.757812 70.253906 -117.257812 78.503906 -113.257812 C 86.757812 -109.257812 95.257812 -105.257812 103.757812 -101.757812 C 108.757812 -99.257812 114.257812 -96.757812 119.757812 -94.257812 C 125.257812 -91.757812 130.257812 -89.007812 134.761719 -86.507812 C 139.261719 -83.757812 143.011719 -81.007812 146.011719 -78.253906 C 149.011719 -75.253906 150.511719 -72.503906 150.511719 -69.753906 C 150.511719 -66.253906 149.261719 -63.003906 146.761719 -60.503906 C 144.261719 -58.003906 141.011719 -55.753906 137.261719 -54.253906 C 133.511719 -52.753906 129.507812 -51.503906 125.007812 -50.753906 C 120.507812 -49.753906 116.507812 -49.503906 112.507812 -49.503906 C 107.507812 -49.503906 102.507812 -50.003906 97.007812 -51.253906 C 91.507812 -52.253906 86.757812 -54.253906 83.007812 -57.003906 C 82.007812 -57.753906 81.257812 -58.753906 81.257812 -60.003906 C 81.007812 -61.253906 81.257812 -62.253906 82.257812 -63.253906 L 82.507812 -63.503906 C 83.257812 -64.753906 83.257812 -66.003906 82.757812 -67.503906 C 82.007812 -69.003906 80.757812 -69.753906 79.257812 -69.753906 L 24 -69.753906 C 22.25 -69.753906 21 -69.003906 20.5 -67.503906 C 19.75 -66.003906 19.75 -64.753906 20.75 -63.503906 L 21.75 -62.503906 C 25.25 -58.503906 27.503906 -54.253906 29.003906 -50.003906 C 33.503906 -35.503906 42.503906 -24 56.503906 -15.25 C 64.003906 -10.25 72.753906 -6.5 82.257812 -4 C 91.757812 -1.25 102.007812 0 112.507812 0 C 125.007812 0 136.761719 -1.75 147.511719 -5.25 C 158.261719 -8.75 167.511719 -13.5 175.261719 -19.75 C 183.011719 -25.75 189.015625 -33.253906 193.515625 -41.753906 C 197.765625 -50.253906 200.015625 -59.503906 200.015625 -69.753906 C 200.015625 -80.507812 197.515625 -90.007812 192.765625 -98.007812 C 188.015625 -106.007812 182.011719 -113.007812 174.511719 -119.007812 C 167.011719 -125.007812 159.011719 -130.007812 150.011719 -134.511719 C 141.011719 -139.011719 132.261719 -143.011719 123.757812 -147.011719 C 118.007812 -149.511719 112.257812 -152.011719 106.507812 -154.761719 C 100.757812 -157.261719 95.507812 -160.011719 91.007812 -163.011719 C 86.507812 -165.761719 82.757812 -168.761719 79.757812 -171.761719 C 76.753906 -174.761719 75.503906 -177.761719 75.503906 -181.011719 C 75.503906 -183.765625 76.503906 -186.265625 79.007812 -188.765625 C 81.257812 -191.265625 84.257812 -193.265625 88.007812 -195.015625 C 91.507812 -196.515625 95.757812 -197.765625 100.507812 -198.765625 C 105.007812 -199.765625 109.757812 -200.265625 114.507812 -200.265625 C 120.007812 -200.265625 125.507812 -199.515625 130.507812 -198.515625 C 135.511719 -197.265625 139.511719 -195.515625 143.011719 -193.265625 C 144.011719 -192.515625 144.761719 -191.515625 144.761719 -190.265625 C 144.761719 -189.015625 144.511719 -188.015625 143.761719 -187.265625 L 143.761719 -187.015625 C 142.761719 -185.515625 142.761719 -184.265625 143.511719 -183.011719 C 144.011719 -181.511719 145.261719 -181.011719 147.011719 -181.011719 L 202.265625 -181.011719 C 203.765625 -181.011719 205.015625 -181.511719 205.765625 -183.011719 C 206.265625 -184.265625 206.265625 -185.515625 205.515625 -187.015625 Z M 205.515625 -187.015625 "/></g></g></g><g fill="#5271ff" fill-opacity="1"><g transform="translate(-15.342107, 539.782585)"><g><path d="M 195.765625 -254.769531 L 195.515625 -254.519531 C 191.015625 -250.519531 186.015625 -248.519531 180.261719 -248.519531 L 51.753906 -248.519531 C 45.753906 -248.519531 40.753906 -250.519531 36.253906 -254.519531 L 36.253906 -254.769531 C 34.753906 -255.519531 33.503906 -255.519531 32.003906 -254.769531 C 30.503906 -254.019531 30.003906 -253.019531 30.003906 -251.519531 L 30.003906 -196.015625 C 30.003906 -194.265625 30.503906 -193.015625 32.003906 -192.515625 C 33.503906 -191.765625 34.753906 -191.765625 36.253906 -192.765625 C 40.753906 -196.765625 45.753906 -199.015625 51.753906 -199.015625 L 86.257812 -199.015625 C 87.507812 -199.015625 88.757812 -198.515625 89.757812 -197.515625 C 90.757812 -196.515625 91.257812 -195.265625 91.257812 -194.015625 L 91.257812 -22 C 91.257812 -16 89.257812 -10.75 85.257812 -6.5 L 85.007812 -6.25 C 84.007812 -4.75 84.007812 -3.5 84.757812 -2 C 85.257812 -0.5 86.507812 0 88.257812 0 L 143.761719 0 C 145.261719 0 146.261719 -0.5 147.011719 -2 C 147.761719 -3.5 147.761719 -4.75 147.011719 -6.25 C 142.761719 -10.75 140.761719 -15.75 140.761719 -21.75 L 140.761719 -194.015625 C 140.761719 -195.265625 141.261719 -196.515625 142.261719 -197.515625 C 143.261719 -198.515625 144.261719 -199.015625 145.761719 -199.015625 L 180.261719 -199.015625 C 186.265625 -199.015625 191.265625 -196.765625 195.515625 -192.765625 L 195.765625 -192.765625 C 197.015625 -191.765625 198.265625 -191.765625 199.765625 -192.515625 C 201.265625 -193.015625 202.015625 -194.265625 202.015625 -196.015625 L 202.015625 -251.519531 C 202.015625 -253.019531 201.265625 -254.019531 199.765625 -254.769531 C 198.265625 -255.519531 197.015625 -255.519531 195.765625 -254.769531 Z M 195.765625 -254.769531 "/></g></g></g><g fill="#5271ff" fill-opacity="1"><g transform="translate(216.672949, 539.782585)"><g><path d="M 270.769531 -21 L 270.769531 -227.515625 C 270.769531 -233.015625 272.519531 -238.019531 276.519531 -242.269531 C 277.519531 -243.519531 277.769531 -244.769531 277.269531 -246.269531 C 276.519531 -247.769531 275.519531 -248.519531 274.019531 -248.519531 L 221.265625 -248.519531 L 221.015625 -248.269531 L 221.015625 -248.519531 L 214.265625 -248.519531 C 212.515625 -248.519531 211.265625 -247.769531 210.765625 -246.269531 C 210.015625 -244.769531 210.015625 -243.519531 211.015625 -242.269531 C 212.015625 -240.769531 211.765625 -239.769531 210.765625 -239.019531 L 159.261719 -191.515625 C 157.511719 -190.015625 155.511719 -189.515625 153.511719 -189.515625 C 151.511719 -189.515625 149.761719 -190.015625 148.261719 -191.515625 L 96.007812 -239.519531 C 95.007812 -240.269531 95.007812 -241.019531 96.007812 -242.019531 C 97.007812 -243.269531 97.257812 -244.769531 96.757812 -246.269531 C 96.007812 -247.769531 94.757812 -248.519531 93.007812 -248.519531 L 34.003906 -248.519531 C 32.253906 -248.519531 31.003906 -247.769531 30.503906 -246.269531 C 29.753906 -244.769531 29.753906 -243.519531 30.753906 -242.269531 L 31.003906 -242.019531 C 34.753906 -237.769531 36.753906 -232.765625 36.753906 -227.265625 L 36.753906 -21.25 C 36.753906 -15.5 34.753906 -10.5 31.003906 -6.5 L 30.753906 -6.25 C 29.753906 -4.75 29.753906 -3.5 30.503906 -2 C 31.003906 -0.5 32.253906 0 34.003906 0 L 89.257812 0 C 90.757812 0 92.007812 -0.5 92.757812 -2 C 93.257812 -3.5 93.257812 -4.75 92.507812 -6.25 L 92.007812 -6.75 C 88.007812 -10.75 86.257812 -15.75 86.257812 -21.5 L 86.257812 -173.011719 C 86.257812 -174.511719 86.757812 -175.511719 88.257812 -176.011719 C 89.757812 -176.511719 91.007812 -176.511719 92.257812 -175.511719 L 148.261719 -123.507812 C 149.761719 -122.007812 151.511719 -121.257812 153.761719 -121.257812 C 155.761719 -121.257812 157.761719 -122.007812 159.261719 -123.507812 L 215.265625 -175.511719 C 216.265625 -176.511719 217.515625 -176.511719 219.015625 -176.011719 C 220.515625 -175.511719 221.265625 -174.511719 221.265625 -173.011719 L 221.265625 -21.75 C 221.265625 -16.25 219.265625 -11.25 215.265625 -7 L 214.765625 -6.25 C 213.765625 -4.75 213.765625 -3.5 214.515625 -2 C 215.015625 -0.5 216.265625 0 218.015625 0 L 274.019531 0 C 275.519531 0 276.519531 -0.5 277.269531 -2 C 277.769531 -3.5 277.519531 -4.75 276.519531 -6.25 C 272.519531 -10.25 270.769531 -15.25 270.769531 -21 Z M 270.769531 -21 "/></g></g></g><g fill="#5271ff" fill-opacity="1"><g transform="translate(524.192909, 539.782585)"><g><path d="M 205.515625 -187.015625 L 204.265625 -188.515625 C 200.765625 -192.015625 198.515625 -196.015625 197.015625 -200.515625 C 192.515625 -214.515625 183.261719 -226.015625 169.761719 -235.015625 C 162.261719 -239.769531 153.761719 -243.519531 144.261719 -246.019531 C 134.761719 -248.519531 125.007812 -249.769531 114.507812 -249.769531 C 104.007812 -249.769531 93.757812 -248.269531 84.007812 -245.769531 C 74.253906 -243.269531 65.503906 -239.519531 57.753906 -234.765625 C 47.253906 -228.265625 39.503906 -220.515625 34.003906 -211.265625 C 28.503906 -202.015625 26 -192.015625 26 -181.011719 C 26 -160.011719 35.753906 -142.011719 55.753906 -127.257812 C 62.753906 -121.757812 70.253906 -117.257812 78.503906 -113.257812 C 86.757812 -109.257812 95.257812 -105.257812 103.757812 -101.757812 C 108.757812 -99.257812 114.257812 -96.757812 119.757812 -94.257812 C 125.257812 -91.757812 130.257812 -89.007812 134.761719 -86.507812 C 139.261719 -83.757812 143.011719 -81.007812 146.011719 -78.253906 C 149.011719 -75.253906 150.511719 -72.503906 150.511719 -69.753906 C 150.511719 -66.253906 149.261719 -63.003906 146.761719 -60.503906 C 144.261719 -58.003906 141.011719 -55.753906 137.261719 -54.253906 C 133.511719 -52.753906 129.507812 -51.503906 125.007812 -50.753906 C 120.507812 -49.753906 116.507812 -49.503906 112.507812 -49.503906 C 107.507812 -49.503906 102.507812 -50.003906 97.007812 -51.253906 C 91.507812 -52.253906 86.757812 -54.253906 83.007812 -57.003906 C 82.007812 -57.753906 81.257812 -58.753906 81.257812 -60.003906 C 81.007812 -61.253906 81.257812 -62.253906 82.257812 -63.253906 L 82.507812 -63.503906 C 83.257812 -64.753906 83.257812 -66.003906 82.757812 -67.503906 C 82.007812 -69.003906 80.757812 -69.753906 79.257812 -69.753906 L 24 -69.753906 C 22.25 -69.753906 21 -69.003906 20.5 -67.503906 C 19.75 -66.003906 19.75 -64.753906 20.75 -63.503906 L 21.75 -62.503906 C 25.25 -58.503906 27.503906 -54.253906 29.003906 -50.003906 C 33.503906 -35.503906 42.503906 -24 56.503906 -15.25 C 64.003906 -10.25 72.753906 -6.5 82.257812 -4 C 91.757812 -1.25 102.007812 0 112.507812 0 C 125.007812 0 136.761719 -1.75 147.511719 -5.25 C 158.261719 -8.75 167.511719 -13.5 175.261719 -19.75 C 183.011719 -25.75 189.015625 -33.253906 193.515625 -41.753906 C 197.765625 -50.253906 200.015625 -59.503906 200.015625 -69.753906 C 200.015625 -80.507812 197.515625 -90.007812 192.765625 -98.007812 C 188.015625 -106.007812 182.011719 -113.007812 174.511719 -119.007812 C 167.011719 -125.007812 159.011719 -130.007812 150.011719 -134.511719 C 141.011719 -139.011719 132.261719 -143.011719 123.757812 -147.011719 C 118.007812 -149.511719 112.257812 -152.011719 106.507812 -154.761719 C 100.757812 -157.261719 95.507812 -160.011719 91.007812 -163.011719 C 86.507812 -165.761719 82.757812 -168.761719 79.757812 -171.761719 C 76.753906 -174.761719 75.503906 -177.761719 75.503906 -181.011719 C 75.503906 -183.765625 76.503906 -186.265625 79.007812 -188.765625 C 81.257812 -191.265625 84.257812 -193.265625 88.007812 -195.015625 C 91.507812 -196.515625 95.757812 -197.765625 100.507812 -198.765625 C 105.007812 -199.765625 109.757812 -200.265625 114.507812 -200.265625 C 120.007812 -200.265625 125.507812 -199.515625 130.507812 -198.515625 C 135.511719 -197.265625 139.511719 -195.515625 143.011719 -193.265625 C 144.011719 -192.515625 144.761719 -191.515625 144.761719 -190.265625 C 144.761719 -189.015625 144.511719 -188.015625 143.761719 -187.265625 L 143.761719 -187.015625 C 142.761719 -185.515625 142.761719 -184.265625 143.511719 -183.011719 C 144.011719 -181.511719 145.261719 -181.011719 147.011719 -181.011719 L 202.265625 -181.011719 C 203.765625 -181.011719 205.015625 -181.511719 205.765625 -183.011719 C 206.265625 -184.265625 206.265625 -185.515625 205.515625 -187.015625 Z M 205.515625 -187.015625 "/></g></g></g></svg>